# xmcd
# Track frame offsets:
# 150
# 13575
# 29556
# 45339
# 62090
# 80787
# 98647
# 113297
# 127169
# 143311
# 159576
# 173633
# 189195
# 207965
# 224604
# 242634
# 260267
# 278439
#
# Disc length: 3951 seconds
# Revision: 0
# Processed by: cddbd v1.5.1PL2 Copyright (c) Steve Scherf et al.
# Submitted via: VisiTrax 2.10.0.248 - For more info visit www.synapsa.com
#
DISCID=eb0f6d12
DTITLE=Various Artist - PromoOnly Country February 2006
DYEAR=2006
DGENRE=
TTITLE0=Toby Keith - Get Drunk And Be Somebody
TTITLE1=Rascal Flatts - What Hurts The Most
TTITLE2=Kenny Chesney - Living In Fast Forward
TTITLE3=Gary Allan - Life Ain't Always Beautiful
TTITLE4=Mark McGuinn - Bring 'Em Back
TTITLE5=Keith Anderson - Everytime I Hear Your Name
TTITLE6=Clint Black - Drinkin' Songs And Other Logic
TTITLE7=Neal McCoy - Last Of The Dying Breed
TTITLE8=Jack Ingram - Wherever You Are
TTITLE9=Rodney Atkins - If You're Going Through Hell (before the devil even kn
TTITLE9=ows)
TTITLE10=Susan Haynes - Drinkin' In My Sunday Dress
TTITLE11=Danielle Peck - I Don't
TTITLE12=Rhett Akins - Kiss My Country Ass
TTITLE13=Andy Griggs - I Never Had A Chance
TTITLE14=Hal Ketchum - Just This Side Of Heaven (hal-lelujah)
TTITLE15=Tyler Dean - Somebody Who Would Die For You
TTITLE16=Little Big Town - Bring It On Home
TTITLE17=Keith Bryant - Somebody
EXTD=
EXTT0=
EXTT1=
EXTT2=
EXTT3=
EXTT4=
EXTT5=
EXTT6=
EXTT7=
EXTT8=
EXTT9=
EXTT10=
EXTT11=
EXTT12=
EXTT13=
EXTT14=
EXTT15=
EXTT16=
EXTT17=
PLAYORDER=
